HIERARCHY
ROOT Hip
{
  OFFSET 0.0 0.0 0.0
  CHANNELS 6 Xposition Yposition Zposition Xrotation Yrotation Zrotation
  JOINT LowerSpine
  {
    OFFSET 0.0 0.061367 -0.03653
    CHANNELS 3 Xrotation Yrotation Zrotation
    JOINT MiddleSpine
    {
      OFFSET 0.0 0.056002 0.002633
      CHANNELS 3 Xrotation Yrotation Zrotation
      JOINT Chest
      {
        OFFSET 0.0 0.069296 -0.013882
        CHANNELS 3 Xrotation Yrotation Zrotation
        JOINT Neck
        {
          OFFSET 0.0 0.156156 -0.002923
          CHANNELS 3 Xrotation Yrotation Zrotation
          JOINT Head
          {
            OFFSET 0.0 0.088183 0.023986
            CHANNELS 3 Xrotation Yrotation Zrotation
            End Site
            {
              OFFSET 1e-06 0.123215 0.003678
            }
          }
        }
        JOINT LClavicle
        {
          OFFSET 0.014189 0.150698 0.046467
          CHANNELS 3 Xrotation Yrotation Zrotation
          JOINT LShoulder
          {
            OFFSET 0.082893 0.021616 -0.034976
            CHANNELS 3 Xrotation Yrotation Zrotation
            JOINT LForearm
            {
              OFFSET 0.195645 -0.000695 -0.001695
              CHANNELS 3 Xrotation Yrotation Zrotation
              JOINT LHand
              {
                OFFSET 0.163209 0.000474 -0.000977
                CHANNELS 3 Xrotation Yrotation Zrotation
                End Site
                {
                  OFFSET 0.0 0.006864 0.0
                }
              }
            }
          }
        }
        JOINT RClavicle
        {
          OFFSET -0.014189 0.150698 0.046467
          CHANNELS 3 Xrotation Yrotation Zrotation
          JOINT RShoulder
          {
            OFFSET -0.082908 0.021619 -0.034982
            CHANNELS 3 Xrotation Yrotation Zrotation
            JOINT RForearm
            {
              OFFSET -0.195645 -0.000695 -0.001695
              CHANNELS 3 Xrotation Yrotation Zrotation
              JOINT RHand
              {
                OFFSET -0.163209 0.000474 -0.000977
                CHANNELS 3 Xrotation Yrotation Zrotation
                End Site
                {
                  OFFSET 0.0 0.006864 0.0
                }
              }
            }
          }
        }
      }
    }
  }
  JOINT RThigh
  {
    OFFSET -0.072558 0.02774 -0.005953
    CHANNELS 3 Xrotation Yrotation Zrotation
    JOINT RShin
    {
      OFFSET -0.005253 -0.285537 0.0
      CHANNELS 3 Xrotation Yrotation Zrotation
      JOINT RFoot
      {
        OFFSET 0.0 -0.28038 0.0
        CHANNELS 3 Xrotation Yrotation Zrotation
        JOINT RToe
        {
          OFFSET 0.0 -0.030816 0.064441
          CHANNELS 3 Xrotation Yrotation Zrotation
          End Site
          {
            OFFSET 0.0 0.0 0.043231
          }
        }
      }
    }
  }
  JOINT LThigh
  {
    OFFSET 0.072557 0.027741 -0.005953
    CHANNELS 3 Xrotation Yrotation Zrotation
    JOINT LShin
    {
      OFFSET 0.005253 -0.285539 0.0
      CHANNELS 3 Xrotation Yrotation Zrotation
      JOINT LFoot
      {
        OFFSET 0.0 -0.28038 0.0
        CHANNELS 3 Xrotation Yrotation Zrotation
        JOINT LToe
        {
          OFFSET 0.0 -0.030816 0.064441
          CHANNELS 3 Xrotation Yrotation Zrotation
          End Site
          {
            OFFSET 0.0 0.0 0.043231
          }
        }
      }
    }
  }
}
MOTION
Frames: 15
Frame Time: 0.03333333333333333
-0.093435 0.551302 -0.06945 11.01875 4.236809 15.834838 -2.944752 14.065742 -19.887848 0.504053 -4.268862 -24.546211 -3.048023 -13.825875 14.422484 -4.652916 -24.927988 4.670877 -12.090888 23.031057 6.93565 -16.874027 17.064522 -0.417936 15.890893 -12.00159 -33.187225 -9.36706 -39.465958 -26.771791 -15.603824 -15.327752 13.083084 10.159815 18.705181 22.397484 7.088284 20.043457 34.588055 -10.11014 39.531696 25.902834 20.424028 7.941378 13.625558 -25.434462 -0.411238 -25.844574 12.456182 5.068015 23.840353 -15.101272 -0.508727 21.50526 4.491735 -21.916367 -13.019494 -20.107111 6.672726 -9.704477 7.307405 21.311583 12.600579 6.841035 1.005032 -23.361799 -13.081048 20.620981 9.520466 
-0.099647 0.550151 -0.07691 10.1931 5.941048 16.878124 -1.616055 13.429314 -22.307949 -1.238209 -5.21542 -25.44698 -2.654219 -15.354974 16.575066 -2.593042 -24.524027 3.13437 -10.002862 23.756611 7.046243 -20.343084 13.352449 0.656047 16.9627 -9.08667 -31.40378 -9.747717 -35.991249 -27.776627 -13.504777 -15.922534 13.79357 6.222784 22.962458 22.631399 9.727428 16.126135 33.999321 -9.355874 41.091587 25.180693 21.265369 8.400005 12.117452 -24.63175 -2.389484 -26.438005 11.947421 3.886693 23.076593 -14.932805 1.843481 21.508577 5.448653 -21.695786 -12.323204 -20.519793 9.558732 -12.171122 8.029871 20.476723 15.494245 5.44834 -2.202057 -23.759409 -12.757979 21.343943 10.123159 
-0.110639 0.554766 -0.070777 9.515231 8.163013 17.641712 -2.337746 13.588176 -23.412724 -0.843842 -5.293625 -26.277271 -1.891943 -16.415659 17.208309 -2.353326 -25.49824 2.850875 -9.068174 24.629543 7.155079 -21.075111 14.078135 1.10298 17.357203 -8.519365 -30.889978 -10.367779 -35.26347 -29.344765 -13.312525 -16.328207 14.524703 5.938057 24.500429 23.145277 9.908262 15.610497 33.428112 -13.378822 44.750923 28.269672 21.8829 8.386829 12.132842 -22.180666 -3.170852 -27.404924 8.800243 5.392177 23.285788 -15.69943 1.915556 22.585985 6.336327 -21.834513 -12.7262 -18.830475 9.228292 -13.190952 6.805952 20.852377 16.390455 6.045463 -1.751162 -24.217667 -12.997763 21.923937 10.654554 
-0.112709 0.562831 -0.061652 9.483849 8.780729 17.092966 -2.75603 12.989002 -23.900564 -0.994972 -4.972326 -26.168495 -2.552827 -17.12077 17.269421 -1.707634 -25.46043 2.623812 -8.838682 24.654476 7.034869 -20.516979 14.898656 0.959499 16.740532 -7.906923 -32.310791 -10.816433 -33.17519 -28.70513 -13.309302 -16.232725 14.59155 7.242094 23.709583 23.180489 8.761905 13.139944 34.094578 -17.799126 47.537548 30.160538 21.868959 8.189901 12.049299 -20.797144 -4.763593 -26.681244 6.678119 5.300512 23.428888 -15.17058 1.352887 22.875814 6.643924 -21.634991 -12.852893 -17.555866 7.95117 -13.461483 5.269311 20.453785 16.86305 6.882827 -0.447472 -23.697599 -12.853282 21.853224 10.809713 
-0.114454 0.567025 -0.05407 9.521192 8.9009 16.076117 -3.413652 12.223049 -24.035172 -1.071224 -4.913867 -25.58168 -3.534512 -17.441404 17.414093 -1.393566 -25.319065 2.759721 -8.378533 24.541248 6.996777 -19.550545 15.659805 0.483447 16.515825 -7.716587 -34.001354 -11.072703 -31.279911 -27.953459 -13.395303 -15.980348 14.50578 9.307605 22.816877 22.45359 7.242322 10.944647 34.264351 -25.453739 51.439026 32.978088 21.694288 7.912101 12.013265 -19.463913 -5.840675 -25.641787 4.638232 5.635371 23.346619 -14.524027 1.00958 23.296936 7.066639 -21.264561 -12.820439 -16.784937 5.851196 -13.50339 3.919464 19.875093 17.053041 7.536883 0.977723 -22.939135 -12.670884 21.644136 10.86693 
-0.114489 0.567594 -0.046835 9.993711 9.611451 15.268472 -4.605334 11.810885 -24.092163 -1.069667 -5.058205 -25.368439 -4.450908 -18.139055 17.563339 -1.512233 -25.552591 3.05017 -7.784508 24.796957 7.167356 -18.541512 16.802782 0.168138 16.760822 -7.360898 -35.053455 -11.417388 -29.937027 -27.788704 -13.517659 -15.940774 14.658593 11.935491 21.730444 21.533077 5.629554 9.625167 33.189415 -38.117031 56.582062 38.63303 21.735577 7.734208 12.200169 -17.799776 -6.237427 -25.160091 2.060306 6.852121 23.402323 -14.224324 0.444295 23.987577 7.501504 -21.126265 -12.935061 -16.554348 3.463492 -13.536619 2.11292 19.869799 17.370848 8.731131 2.65042 -22.280334 -12.753848 21.66383 11.039731 
-0.11071 0.567665 -0.041484 10.674877 10.443212 14.535728 -6.079666 11.828457 -23.746206 -0.808255 -4.983986 -25.479298 -4.654073 -18.941271 17.537682 -1.760158 -25.762938 2.835545 -6.970989 25.084148 7.344904 -17.274229 18.191589 -0.827476 16.707825 -7.146688 -35.750717 -11.649574 -28.64641 -27.623997 -13.452531 -15.978377 14.897425 14.788895 19.679535 21.03093 3.523561 9.057328 31.820345 -56.658886 62.149921 48.235428 21.789471 7.564495 12.405642 -16.350357 -6.336507 -24.885813 -0.265042 8.259222 23.145473 -14.041063 -0.726852 24.18845 7.907387 -21.059971 -12.979151 -16.329004 1.606917 -13.456299 0.477383 20.155672 17.292324 9.835471 4.879891 -21.472931 -12.911911 21.685505 11.247675 
-0.102469 0.566355 -0.033379 11.425286 11.714036 13.740004 -7.99783 12.397406 -22.618849 -0.297389 -4.929673 -25.799101 -4.724883 -19.84351 17.42836 -2.326881 -26.089437 1.992842 -6.034981 25.482847 7.490932 -15.67927 19.619925 -2.582278 16.984665 -6.887129 -36.168983 -11.821204 -27.603132 -27.581249 -13.462097 -16.063955 15.20762 17.833912 16.789738 20.753403 0.95928 9.188637 29.844799 -83.96077 66.705055 64.895332 21.96261 7.427949 12.615833 -14.897345 -6.398313 -24.309122 -2.98863 10.903813 21.817558 -13.677845 -2.206841 24.396126 8.338349 -21.041656 -13.108173 -15.703852 0.052915 -13.795689 -1.233155 20.83069 16.82346 10.845512 7.504853 -20.561634 -12.97173 21.848299 11.497287 
-0.090249 0.565592 -0.022912 12.181292 13.151647 13.320249 -10.1713 13.470478 -20.97027 0.261067 -4.990329 -26.228794 -4.70115 -20.45475 17.239851 -2.820109 -26.599157 1.017397 -5.269524 25.937941 7.656864 -13.961552 21.122141 -5.001488 17.489248 -6.286277 -36.418247 -12.074117 -26.818354 -28.108213 -13.539364 -16.191454 15.526069 20.24789 13.455104 21.047382 -1.871633 9.920209 26.891426 -114.923737 68.468269 86.695831 22.261902 7.319791 12.795589 -13.844948 -6.377166 -24.228254 -5.246845 14.20559 19.87019 -13.107462 -4.173531 24.431643 8.637657 -21.146645 -13.321416 -14.696856 -0.781355 -14.754823 -3.372764 22.039507 16.007895 11.84933 10.143098 -19.449125 -13.19556 22.012682 11.781872 
-0.078956 0.567542 -0.015068 12.880771 14.119412 13.022316 -11.831889 14.363576 -19.554668 0.54736 -5.030679 -26.594107 -4.953581 -20.880432 16.9841 -2.675646 -26.88689 0.352568 -4.722809 26.297852 7.742629 -12.330571 22.448523 -7.437276 18.012564 -5.633527 -36.615566 -12.571861 -26.718014 -28.656746 -13.542179 -16.311707 15.811868 21.728306 10.282564 21.428635 -3.920293 11.008381 24.313919 -136.902969 67.860641 102.87262 22.501722 7.292556 12.86986 -13.526096 -6.387507 -24.033186 -6.685823 17.026997 17.822039 -12.403488 -6.070658 24.274521 9.103224 -21.211054 -13.367549 -13.995875 -1.084569 -15.681252 -4.899374 23.10107 15.247448 12.613712 12.439282 -18.345318 -13.373877 22.149839 11.994473 
-0.068657 0.569518 -0.009529 13.542213 14.752125 12.76737 -13.090708 15.125171 -18.463675 0.68743 -5.08603 -26.988161 -5.73059 -21.552933 16.68944 -2.09096 -27.214567 -0.255973 -4.325524 26.774923 7.735542 -10.823019 23.830473 -9.642594 18.563673 -5.131044 -36.554169 -12.735652 -26.632151 -29.211557 -13.483828 -16.491751 16.20516 22.713278 7.584615 21.542324 -5.982909 12.865367 21.507177 -150.202316 66.481087 112.982903 22.831165 7.278632 12.977116 -13.402284 -6.50202 -24.069456 -7.633726 19.074303 16.340111 -11.418554 -7.88233 24.087751 9.697675 -21.350382 -13.336864 -13.498216 -0.960636 -16.621864 -6.05096 24.06288 14.769389 13.301871 14.257825 -17.486467 -13.627785 22.365454 12.235395 
-0.058321 0.571987 -0.005834 13.983943 14.977955 12.385197 -14.050082 15.660909 -17.437569 0.797702 -5.180223 -27.148516 -6.549699 -21.967806 16.380741 -1.486144 -27.36194 -0.762462 -3.985908 27.110594 7.700129 -9.317187 24.936916 -11.598672 19.024939 -4.937365 -36.601898 -12.717026 -26.63176 -29.656839 -13.371031 -16.614697 16.529682 23.285576 5.357614 21.502953 -7.45599 14.923193 19.162806 -157.292374 65.33799 118.266624 23.063503 7.251388 13.038395 -13.275252 -6.685206 -24.031023 -7.827708 20.552475 15.059536 -10.243885 -9.328296 23.876907 10.180728 -21.434139 -13.268042 -13.07585 -0.644788 -17.241472 -6.787186 24.788857 14.305392 13.927588 15.587094 -16.683674 -13.890593 22.476957 12.384586 
-0.04902 0.57423 -0.004053 14.456779 15.021374 12.036492 -14.837622 16.142509 -16.568666 0.977952 -5.375534 -27.242712 -7.32721 -22.319643 16.097498 -1.175905 -27.57494 -1.267707 -3.746461 27.420027 7.650242 -8.147903 25.743732 -13.293736 19.483086 -4.877023 -36.491657 -12.745414 -26.786406 -30.153107 -13.252274 -16.739557 16.873901 23.646177 3.727819 21.349447 -8.274235 16.600594 17.2111 -160.493942 64.472244 120.688828 23.297541 7.30338 13.086713 -13.302399 -6.879145 -24.031803 -7.914963 21.6905 14.022861 -9.23967 -10.357624 23.80271 10.57085 -21.528414 -13.258194 -12.960963 -0.33773 -17.653816 -7.214434 25.404575 13.827472 14.653614 16.42149 -16.032637 -14.184727 22.613874 12.477738 
-0.042295 0.575614 -0.003338 14.829405 15.027514 11.802247 -15.349392 16.422174 -15.955342 1.111891 -5.488159 -27.27882 -7.923757 -22.537207 15.841789 -0.925169 -27.700455 -1.595519 -3.566978 27.610273 7.587018 -7.31315 26.259722 -14.517028 19.822319 -4.925613 -36.41048 -12.775376 -26.922316 -30.448656 -13.168137 -16.804552 17.093544 23.76017 2.539997 21.040495 -8.940278 18.208593 15.705233 -161.856644 63.986652 121.657143 23.443436 7.326549 13.100423 -13.463539 -6.972289 -24.047308 -7.740029 22.367859 13.292459 -8.450693 -11.103103 23.704128 10.855974 -21.571138 -13.225772 -12.972527 -0.064365 -17.923719 -7.380362 25.807806 13.446533 15.151554 16.924614 -15.567538 -14.380503 22.680555 12.533581 
-0.037396 0.576669 -0.002587 15.153663 15.003429 11.655396 -15.708257 16.654945 -15.443642 1.163844 -5.574743 -27.307943 -8.411438 -22.631956 15.664886 -0.538845 -27.780615 -1.845078 -3.447321 27.741589 7.548532 -6.576947 26.657808 -15.464667 20.014238 -5.038372 -36.396988 -12.750489 -27.019102 -30.632109 -13.074428 -16.854877 17.259735 23.734571 1.513541 20.845472 -9.766813 19.918247 14.465672 -161.700104 63.77993 121.256935 23.553373 7.336655 13.09252 -13.644686 -7.091934 -24.041517 -7.465011 22.906216 12.667618 -7.780601 -11.822093 23.537947 11.025883 -21.611231 -13.195383 -13.031892 0.210976 -18.169119 -7.485868 26.177389 13.170166 15.524013 17.245256 -15.212966 -14.521718 22.723711 12.583621 
